<?xml version="1.0" standalone="no"?>
<!DOCTYPE svg PUBLIC "-//W3C//DTD SVG 20010904//EN"
 "http://www.w3.org/TR/2001/REC-SVG-20010904/DTD/svg10.dtd">
<svg version="1.0" xmlns="http://www.w3.org/2000/svg"
 width="260.000000pt" height="260.000000pt" viewBox="0 0 260.000000 260.000000"
 preserveAspectRatio="xMidYMid meet">
<metadata>
Created by potrace 1.11, written by Peter Selinger 2001-2013
</metadata>
<g transform="translate(0.000000,260.000000) scale(0.100000,-0.100000)"
fill="#000000" stroke="none">
<path d="M0 1300 l0 -1300 1300 0 1300 0 0 1300 0 1300 -1300 0 -1300 0 0
-1300z m800 315 l0 -95 -115 0 -115 0 0 -315 0 -315 -120 0 -120 0 -2 313 -3
312 -117 3 -118 3 0 94 0 95 355 0 355 0 0 -95z m750 0 l0 -95 -215 0 -215 0
0 -65 0 -65 195 0 195 0 0 -90 0 -90 -195 0 -195 0 0 -70 0 -70 220 0 220 0 0
-90 0 -90 -340 0 -340 0 0 410 0 410 335 0 335 0 0 -95z m669 67 c114 -37 205
-117 246 -216 25 -59 36 -165 24 -237 -27 -170 -135 -282 -311 -324 -45 -10
-123 -15 -270 -15 l-208 0 0 411 0 412 228 -6 c192 -4 237 -8 291 -25z"/>
<path d="M1940 1299 l0 -221 98 4 c89 3 102 6 134 30 47 36 71 89 76 170 3 55
0 76 -21 121 -38 84 -100 117 -218 117 l-69 0 0 -221z"/>
</g>
</svg>
